M48
M71
T01C0.500
T02C0.900
T03C1.100
T04C4.000
%
G90
G81
T1
X173500Y84100
X163600Y90200
Y94500
X160700Y100700
X159200
X157700
X172000Y80000
X169000
X166700Y95800
Y101000
T2
X164700Y86900
X167200
X159000Y88500
X146300Y93000
X143800
X141300
X105800Y88001
X103300
X100800
X98300
X95800
X93300
X90800Y88101
X156500Y88500
X154000
X151500
X149000
X173700Y111200
X105800Y103501
X112700Y106101
X115300
X112700Y103501
X115300
X166300Y111200
X173500Y81900
X170900
X168400
X165900
X103300Y103501
X88300Y93201
Y100701
X93300Y101101
X90800
X105800Y106101
X100800Y103501
X98300
X95800
X93300
X90800Y103601
X103300Y106101
X100800
X98300
X95800
X93300
X90800
X146300Y100500
X127500Y92380
X108800Y88401
X116300Y88400
X141300Y100500
X143800
X121200Y101200
X123700
X126200
X128700
X131200
X145000Y105600
X142500
X140000
X135000
X132500
X130000
X125000
X122500
X120000
X145000Y88400
X142500
X140000
X135000
X132500
X130000
X125000
X122500
X120000
X99750Y90501
X92250
Y95751
Y98251
X101750Y100250
X97250
X101750Y93750
X97250
X104640Y92380
X107180
X109720
X112260
X114800
X117340
X119880
X122420
X130000Y97500
Y95000
X124960Y92380
Y100000
X127500
X122420
X119880
X117340
X114800
X112260
X109720
X107180
X104640
X134250Y93750
X138750
Y100250
X134250
T3
X172600Y115500
Y118000
T4
X86000Y105000
Y89000
X166000Y76500
Y117500
M30